<?xml version="1.0" standalone="no"?>
<!DOCTYPE svg PUBLIC "-//W3C//DTD SVG 20010904//EN"
 "http://www.w3.org/TR/2001/REC-SVG-20010904/DTD/svg10.dtd">
<svg version="1.0" xmlns="http://www.w3.org/2000/svg"
 width="260.000000pt" height="260.000000pt" viewBox="0 0 260.000000 260.000000"
 preserveAspectRatio="xMidYMid meet">
<metadata>
Created by potrace 1.11, written by Peter Selinger 2001-2013
</metadata>
<g transform="translate(0.000000,260.000000) scale(0.100000,-0.100000)"
fill="#000000" stroke="none">
<path d="M1661 1812 c-5 -2 -46 -114 -91 -250 -45 -136 -84 -254 -87 -262 -3
-8 -7 -19 -9 -25 -1 -5 -34 -106 -73 -224 -68 -206 -78 -259 -47 -262 53 -5
198 -3 202 3 3 4 36 96 73 205 98 282 120 346 125 350 3 3 24 -54 108 -299 29
-87 48 -120 48 -86 0 6 26 90 57 186 l57 175 -79 236 c-43 130 -82 241 -87
246 -8 9 -173 15 -197 7z"/>
<path d="M2250 1805 c-6 -8 -107 -312 -285 -863 -28 -85 -32 -108 -23 -128 6
-13 14 -24 17 -25 35 -6 195 -2 201 6 4 6 28 69 53 140 111 320 209 601 255
733 31 87 46 142 39 143 -94 5 -250 2 -257 -6z"/>
<path d="M196 1800 c-2 -3 -2 -232 -1 -510 l1 -504 127 -2 127 -1 1 31 c0 17
1 193 2 391 l2 360 100 -1 c113 0 167 -19 189 -63 15 -31 13 -89 -4 -120 -17
-33 -80 -57 -152 -60 -34 -1 -65 -4 -69 -7 -4 -2 -7 -56 -7 -119 l1 -114 91 4
c277 11 443 185 405 425 -22 137 -130 247 -276 281 -47 11 -532 19 -537 9z"/>
<path d="M990 1805 c0 -2 9 -28 19 -57 11 -29 33 -91 49 -138 17 -47 44 -123
60 -170 17 -47 63 -177 102 -290 40 -113 73 -206 75 -208 3 -4 125 365 125
380 0 6 -35 119 -77 250 l-78 238 -137 0 c-76 0 -138 -2 -138 -5z"/>
</g>
</svg>
